<svg width="120" xmlns="http://www.w3.org/2000/svg" height="120" id="screenshot-9aa74439-742b-8060-8007-f42d03560a07" viewBox="0 0 120 120" xmlns:xlink="http://www.w3.org/1999/xlink" fill="none" version="1.1"><g id="shape-9aa74439-742b-8060-8007-f42d03560a07"><defs><clipPath id="frame-clip-9aa74439-742b-8060-8007-f42d03560a07-render-1" class="frame-clip frame-clip-def"><rect rx="25" ry="25" x="0" y="0" width="120" height="120" transform="matrix(1.000000, 0.000000, 0.000000, 1.000000, 0.000000, 0.000000)"/></clipPath></defs><g class="frame-container-wrapper"><g class="frame-container-blur"><g class="frame-container-shadows"><g clip-path="url(#frame-clip-9aa74439-742b-8060-8007-f42d03560a07-render-1)" fill="none"><g class="fills" id="fills-9aa74439-742b-8060-8007-f42d03560a07"><rect width="120" height="120" class="frame-background" x="0" transform="matrix(1.000000, 0.000000, 0.000000, 1.000000, 0.000000, 0.000000)" style="fill: rgb(255, 149, 111); fill-opacity: 1;" ry="25" rx="25" y="0"/></g><g class="frame-children"><g id="shape-9aa74439-742b-8060-8007-f42d03560a08" width="16" height="16" rx="0" ry="0" style="fill: rgb(0, 0, 0);"><g id="shape-9aa74439-742b-8060-8007-f42d03560a09" style="display: none;"><g class="fills" id="fills-9aa74439-742b-8060-8007-f42d03560a09"><rect width="155" height="155" x="-12" transform="matrix(1.000000, 0.000000, 0.000000, 1.000000, 0.000000, 0.000000)" style="fill: none;" ry="0" fill="none" rx="0" y="8"/></g></g><g id="shape-9aa74439-742b-8060-8007-f42d03560a0a"><g class="fills" id="fills-9aa74439-742b-8060-8007-f42d03560a0a"><path d="M77.94879150390625,143.625C74.68798828125,137.4486541748047,65.5,115.65650939941406,65.5,66.125L65.5,65.49058532714844L70.9105224609375,69.09468078613281C79.644287109375,74.90240478515625,84.88787841796875,84.69926452636719,84.875,95.1875L94.5625,95.1875C94.5732421875,81.46171569824219,87.713134765625,68.64303588867188,76.2864990234375,61.03910827636719L69.389404296875,56.4375L76.800537109375,56.4375C84.1339111328125,56.45112609863281,91.26910400390625,58.829437255859375,97.144287109375,63.219085693359375L106.1881103515625,69.99995422363281L111.9993896484375,62.25004577636719L102.95703125,55.46870422363281C95.40087890625,49.82848358154297,86.2291259765625,46.770484924316406,76.800537109375,46.75L70.9105224609375,46.75C77.23699951171875,40.57232666015625,85.7200927734375,37.09844970703125,94.5625,37.0625L104.25,37.0625L104.25,27.375L94.5625,27.375C81.3843994140625,27.427597045898438,68.9305419921875,33.412330627441406,60.65625,43.66973114013672C52.38214111328125,33.412330627441406,39.9281005859375,27.427597045898438,26.75,27.375L17.0625,27.375L17.0625,37.0625L26.75,37.0625C35.5928955078125,37.09844970703125,44.07501220703125,40.57232666015625,50.4017333984375,46.75L44.511962890625,46.75C35.0828857421875,46.770484924316406,25.91180419921875,49.82848358154297,18.35595703125,55.46870422363281L9.3126220703125,62.25004577636719L15.1248779296875,69.99995422363281L24.16790771484375,63.219085693359375C30.0439453125,58.829437255859375,37.1781005859375,56.45112609863281,44.511962890625,56.4375L51.92333984375,56.4375L45.0302734375,61.03910827636719C33.602294921875,68.64204406738281,26.73992919921875,81.46151733398438,26.75,95.1875L36.4375,95.1875C36.42510986328125,84.69926452636719,41.66851806640625,74.90240478515625,50.4017333984375,69.09468078613281L55.8125,65.49531555175781L55.8125,66.125C55.8125,109.44779968261719,62.65185546875,132.79884338378906,67.2490234375,143.625L-2.3125,143.625L-2.3125,153.3125L133.3125,153.3125L133.3125,143.625Z" style="fill: rgb(0, 0, 0); fill-opacity: 1;"/></g></g></g></g></g></g></g></g></g></svg>