<svg xmlns="http://www.w3.org/2000/svg" viewBox="0 0 120 120" fill="none"><path d="M77.94873046875,143.625C74.68798828125,137.4486541748047,65.5,115.65650939941406,65.5,66.125L65.5,65.49058532714844L70.9105224609375,69.09468078613281C79.644287109375,74.90240478515625,84.887939453125,84.69926452636719,84.875,95.1875L94.5625,95.1875C94.5732421875,81.46171569824219,87.713134765625,68.64303588867188,76.2864990234375,61.03910827636719L69.389404296875,56.4375L76.800537109375,56.4375C84.1339111328125,56.45112609863281,91.26904296875,58.829437255859375,97.144287109375,63.219085693359375L106.1881103515625,69.99995422363281L111.9993896484375,62.25004577636719L102.95703125,55.46870422363281C95.40087890625,49.82848358154297,86.2291259765625,46.770484924316406,76.800537109375,46.75L70.9105224609375,46.75C77.237060546875,40.57232666015625,85.7200927734375,37.09844970703125,94.5625,37.0625L104.25,37.0625L104.25,27.375L94.5625,27.375C81.3843994140625,27.427597045898438,68.9305419921875,33.412330627441406,60.65625,43.66973114013672C52.382080078125,33.412330627441406,39.9281005859375,27.427597045898438,26.75,27.375L17.0625,27.375L17.0625,37.0625L26.75,37.0625C35.5928955078125,37.09844970703125,44.074951171875,40.57232666015625,50.4017333984375,46.75L44.511962890625,46.75C35.0828857421875,46.770484924316406,25.911865234375,49.82848358154297,18.35595703125,55.46870422363281L9.3126220703125,62.25004577636719L15.1248779296875,69.99995422363281L24.16796875,63.219085693359375C30.0439453125,58.829437255859375,37.1781005859375,56.45112609863281,44.511962890625,56.4375L51.92333984375,56.4375L45.0302734375,61.03910827636719C33.602294921875,68.64204406738281,26.739990234375,81.46151733398438,26.75,95.1875L36.4375,95.1875C36.425048828125,84.69926452636719,41.66845703125,74.90240478515625,50.4017333984375,69.09468078613281L55.8125,65.49531555175781L55.8125,66.125C55.8125,109.44779968261719,62.65185546875,132.79884338378906,67.2490234375,143.625L-2.3125,143.625L-2.3125,153.3125L133.3125,153.3125L133.3125,143.625Z" fill="currentColor"/></svg>
