<svg width="231" xmlns="http://www.w3.org/2000/svg" height="219" id="screenshot-2190df39-3c51-80a8-8007-e18be605852f" viewBox="0 0 231 219" xmlns:xlink="http://www.w3.org/1999/xlink" fill="none" version="1.1"><g id="shape-2190df39-3c51-80a8-8007-e18be605852f" rx="0" ry="0"><g id="shape-2190df39-3c51-80a8-8007-e18a9b005af5"><g class="fills" id="fills-2190df39-3c51-80a8-8007-e18a9b005af5"><path d="M0,0 h92 a20,20 0 0 1 20,20 v179 a20,20 0 0 1 -20,20 h-72 a20,20 0 0 1 -20,-20 v-199 a0,0 0 0 1 0,0 z" x="0" y="0" transform="matrix(1.000000, 0.000000, 0.000000, 1.000000, 0.000000, 0.000000)" width="112" height="219"/></g><g id="strokes-0479491a-4c25-8028-8007-e18bf262ea4b-2190df39-3c51-80a8-8007-e18a9b005af5" class="strokes"><g class="inner-stroke-shape" transform="matrix(1.000000, 0.000000, 0.000000, 1.000000, 0.000000, 0.000000)"><defs><clipPath id="inner-stroke-render-2-2190df39-3c51-80a8-8007-e18a9b005af5-0"><use href="#stroke-shape-render-2-2190df39-3c51-80a8-8007-e18a9b005af5-0"/></clipPath><path d="M0,0 h92 a20,20 0 0 1 20,20 v179 a20,20 0 0 1 -20,20 h-72 a20,20 0 0 1 -20,-20 v-199 a0,0 0 0 1 0,0 z" x="0" y="0" width="112" height="219" id="stroke-shape-render-2-2190df39-3c51-80a8-8007-e18a9b005af5-0" style="fill: none; stroke-width: 2; stroke: rgb(0, 0, 0); stroke-opacity: 1;"/></defs><use href="#stroke-shape-render-2-2190df39-3c51-80a8-8007-e18a9b005af5-0" clip-path="url('#inner-stroke-render-2-2190df39-3c51-80a8-8007-e18a9b005af5-0')"/></g></g></g><g id="shape-2190df39-3c51-80a8-8007-e18b2a13cf59"><g class="fills" id="fills-2190df39-3c51-80a8-8007-e18b2a13cf59"><path d="M119,0 h92 a20,20 0 0 1 20,20 v179 a20,20 0 0 1 -20,20 h-72 a20,20 0 0 1 -20,-20 v-199 a0,0 0 0 1 0,0 z" x="119" y="0" transform="matrix(1.000000, 0.000000, 0.000000, 1.000000, 0.000000, 0.000000)" width="112" height="219" style="fill: rgb(177, 178, 181); fill-opacity: 1;"/></g><g id="strokes-0479491a-4c25-8028-8007-e18bf263de30-2190df39-3c51-80a8-8007-e18b2a13cf59" class="strokes"><g class="inner-stroke-shape" transform="matrix(1.000000, 0.000000, 0.000000, 1.000000, 0.000000, 0.000000)"><defs><clipPath id="inner-stroke-render-3-2190df39-3c51-80a8-8007-e18b2a13cf59-0"><use href="#stroke-shape-render-3-2190df39-3c51-80a8-8007-e18b2a13cf59-0"/></clipPath><path d="M119,0 h92 a20,20 0 0 1 20,20 v179 a20,20 0 0 1 -20,20 h-72 a20,20 0 0 1 -20,-20 v-199 a0,0 0 0 1 0,0 z" x="119" y="0" width="112" height="219" id="stroke-shape-render-3-2190df39-3c51-80a8-8007-e18b2a13cf59-0" style="fill: none; stroke-width: 2; stroke: rgb(0, 0, 0); stroke-opacity: 1;"/></defs><use href="#stroke-shape-render-3-2190df39-3c51-80a8-8007-e18b2a13cf59-0" clip-path="url('#inner-stroke-render-3-2190df39-3c51-80a8-8007-e18b2a13cf59-0')"/></g></g></g><g id="shape-2190df39-3c51-80a8-8007-e18bcd3a71ca" width="24" height="24" rx="0" ry="0" style="fill: rgb(0, 0, 0);"><g id="shape-2190df39-3c51-80a8-8007-e18bcd3a71cb" style="display: none;"><g class="fills" id="fills-2190df39-3c51-80a8-8007-e18bcd3a71cb"><rect width="80" height="80" x="134" transform="matrix(1.000000, 0.000000, 0.000000, 1.000000, 0.000000, 0.000000)" style="fill: none;" ry="0" fill="none" rx="0" y="70"/></g></g><g id="shape-2190df39-3c51-80a8-8007-e18bcd3a71cc" rx="0" ry="0" style="fill: rgb(0, 0, 0);"><g id="shape-2190df39-3c51-80a8-8007-e18bcd3a71cd"><g class="fills" id="fills-2190df39-3c51-80a8-8007-e18bcd3a71cd"><path d="M167.1998291015625,100.45654296875L170.1531982421875,90.1265869140625C171.2598876953125,86.2601318359375,176.7401123046875,86.2601318359375,177.8468017578125,90.1265869140625L180.7965087890625,100.45654296875C181.176513671875,101.7850341796875,182.2149658203125,102.823486328125,183.54345703125,103.2034912109375L193.8734130859375,106.1531982421875C197.7398681640625,107.2598876953125,197.7398681640625,112.7401123046875,193.8734130859375,113.8468017578125L183.54345703125,116.7965087890625C182.2149658203125,117.176513671875,181.176513671875,118.2149658203125,180.7965087890625,119.54345703125L177.8468017578125,129.8734130859375C176.7401123046875,133.7398681640625,171.2598876953125,133.7398681640625,170.1531982421875,129.8734130859375L167.2034912109375,119.54345703125C166.823486328125,118.2149658203125,165.7850341796875,117.176513671875,164.45654296875,116.7965087890625L154.1265869140625,113.8468017578125C150.2601318359375,112.7401123046875,150.2601318359375,107.2598876953125,154.1265869140625,106.1531982421875L164.45654296875,103.2034912109375C165.7850341796875,102.823486328125,166.823486328125,101.7850341796875,167.2034912109375,100.45654296875" style="fill: rgb(0, 0, 0); fill-opacity: 0.16;"/></g></g><g id="shape-2190df39-3c51-80a8-8007-e18bcd3a71ce"><g class="fills" id="fills-2190df39-3c51-80a8-8007-e18bcd3a71ce"><path d="M167.1998291015625,100.45654296875L170.1531982421875,90.1265869140625C171.2598876953125,86.2601318359375,176.7401123046875,86.2601318359375,177.8468017578125,90.1265869140625L180.7965087890625,100.45654296875C181.176513671875,101.7850341796875,182.2149658203125,102.823486328125,183.54345703125,103.2034912109375L193.8734130859375,106.1531982421875C197.7398681640625,107.2598876953125,197.7398681640625,112.7401123046875,193.8734130859375,113.8468017578125L183.54345703125,116.7965087890625C182.2149658203125,117.176513671875,181.176513671875,118.2149658203125,180.7965087890625,119.54345703125L177.8468017578125,129.8734130859375C176.7401123046875,133.7398681640625,171.2598876953125,133.7398681640625,170.1531982421875,129.8734130859375L167.2034912109375,119.54345703125C166.823486328125,118.2149658203125,165.7850341796875,117.176513671875,164.45654296875,116.7965087890625L154.1265869140625,113.8468017578125C150.2601318359375,112.7401123046875,150.2601318359375,107.2598876953125,154.1265869140625,106.1531982421875L164.45654296875,103.2034912109375C165.7850341796875,102.823486328125,166.823486328125,101.7850341796875,167.2034912109375,100.45654296875M148.766845703125,84.2764892578125L150.0201416015625,79.2532958984375C150.1865234375,78.5799560546875,151.1468505859375,78.5799560546875,151.313232421875,79.2532958984375L152.5701904296875,84.2764892578125C152.6287841796875,84.5157470703125,152.814697265625,84.7030029296875,153.0531005859375,84.76318359375L158.0799560546875,86.0201416015625C158.75341796875,86.1865234375,158.75341796875,87.1431884765625,158.0799560546875,87.313232421875L153.0531005859375,88.5701904296875C152.8155517578125,88.6300048828125,152.6300048828125,88.8155517578125,152.5701904296875,89.0531005859375L151.313232421875,94.0799560546875C151.1468505859375,94.75341796875,150.1865234375,94.75341796875,150.0201416015625,94.0799560546875L148.76318359375,89.0531005859375C148.703369140625,88.8155517578125,148.517822265625,88.6300048828125,148.2801513671875,88.5701904296875L143.2532958984375,87.313232421875C142.5799560546875,87.1468505859375,142.5799560546875,86.1865234375,143.2532958984375,86.0201416015625L148.2801513671875,84.76318359375C148.5186767578125,84.7030029296875,148.70458984375,84.5157470703125,148.76318359375,84.2764892578125M195.4334716796875,130.9468994140625L196.686767578125,125.9200439453125C196.8531494140625,125.24658203125,197.809814453125,125.24658203125,197.9798583984375,125.9200439453125L199.23681640625,130.9468994140625C199.296630859375,131.1844482421875,199.482177734375,131.3699951171875,199.7198486328125,131.4298095703125L204.7467041015625,132.686767578125C205.4200439453125,132.8531494140625,205.4200439453125,133.809814453125,204.7467041015625,133.9798583984375L199.7198486328125,135.23681640625C199.482177734375,135.296630859375,199.296630859375,135.482177734375,199.23681640625,135.7198486328125L197.9798583984375,140.7467041015625C197.8134765625,141.4200439453125,196.8568115234375,141.4200439453125,196.686767578125,140.7467041015625L195.4298095703125,135.7198486328125C195.3699951171875,135.482177734375,195.1844482421875,135.296630859375,194.9468994140625,135.23681640625L189.9200439453125,133.9798583984375C189.24658203125,133.8134765625,189.24658203125,132.8531494140625,189.9200439453125,132.686767578125L194.9468994140625,131.4298095703125C195.1844482421875,131.3699951171875,195.3699951171875,131.1844482421875,195.4298095703125,130.9468994140625" fill="none" stroke-linecap="round" stroke-linejoin="round" stroke-miterlimit="10" style="fill: none;"/></g><g fill="none" stroke-linecap="round" stroke-linejoin="round" stroke-miterlimit="10" id="strokes-0479491a-4c25-8028-8007-e18bf265cf35-2190df39-3c51-80a8-8007-e18bcd3a71ce" class="strokes"><g class="stroke-shape"><path d="M167.1998291015625,100.45654296875L170.1531982421875,90.1265869140625C171.2598876953125,86.2601318359375,176.7401123046875,86.2601318359375,177.8468017578125,90.1265869140625L180.7965087890625,100.45654296875C181.176513671875,101.7850341796875,182.2149658203125,102.823486328125,183.54345703125,103.2034912109375L193.8734130859375,106.1531982421875C197.7398681640625,107.2598876953125,197.7398681640625,112.7401123046875,193.8734130859375,113.8468017578125L183.54345703125,116.7965087890625C182.2149658203125,117.176513671875,181.176513671875,118.2149658203125,180.7965087890625,119.54345703125L177.8468017578125,129.8734130859375C176.7401123046875,133.7398681640625,171.2598876953125,133.7398681640625,170.1531982421875,129.8734130859375L167.2034912109375,119.54345703125C166.823486328125,118.2149658203125,165.7850341796875,117.176513671875,164.45654296875,116.7965087890625L154.1265869140625,113.8468017578125C150.2601318359375,112.7401123046875,150.2601318359375,107.2598876953125,154.1265869140625,106.1531982421875L164.45654296875,103.2034912109375C165.7850341796875,102.823486328125,166.823486328125,101.7850341796875,167.2034912109375,100.45654296875M148.766845703125,84.2764892578125L150.0201416015625,79.2532958984375C150.1865234375,78.5799560546875,151.1468505859375,78.5799560546875,151.313232421875,79.2532958984375L152.5701904296875,84.2764892578125C152.6287841796875,84.5157470703125,152.814697265625,84.7030029296875,153.0531005859375,84.76318359375L158.0799560546875,86.0201416015625C158.75341796875,86.1865234375,158.75341796875,87.1431884765625,158.0799560546875,87.313232421875L153.0531005859375,88.5701904296875C152.8155517578125,88.6300048828125,152.6300048828125,88.8155517578125,152.5701904296875,89.0531005859375L151.313232421875,94.0799560546875C151.1468505859375,94.75341796875,150.1865234375,94.75341796875,150.0201416015625,94.0799560546875L148.76318359375,89.0531005859375C148.703369140625,88.8155517578125,148.517822265625,88.6300048828125,148.2801513671875,88.5701904296875L143.2532958984375,87.313232421875C142.5799560546875,87.1468505859375,142.5799560546875,86.1865234375,143.2532958984375,86.0201416015625L148.2801513671875,84.76318359375C148.5186767578125,84.7030029296875,148.70458984375,84.5157470703125,148.76318359375,84.2764892578125M195.4334716796875,130.9468994140625L196.686767578125,125.9200439453125C196.8531494140625,125.24658203125,197.809814453125,125.24658203125,197.9798583984375,125.9200439453125L199.23681640625,130.9468994140625C199.296630859375,131.1844482421875,199.482177734375,131.3699951171875,199.7198486328125,131.4298095703125L204.7467041015625,132.686767578125C205.4200439453125,132.8531494140625,205.4200439453125,133.809814453125,204.7467041015625,133.9798583984375L199.7198486328125,135.23681640625C199.482177734375,135.296630859375,199.296630859375,135.482177734375,199.23681640625,135.7198486328125L197.9798583984375,140.7467041015625C197.8134765625,141.4200439453125,196.8568115234375,141.4200439453125,196.686767578125,140.7467041015625L195.4298095703125,135.7198486328125C195.3699951171875,135.482177734375,195.1844482421875,135.296630859375,194.9468994140625,135.23681640625L189.9200439453125,133.9798583984375C189.24658203125,133.8134765625,189.24658203125,132.8531494140625,189.9200439453125,132.686767578125L194.9468994140625,131.4298095703125C195.1844482421875,131.3699951171875,195.3699951171875,131.1844482421875,195.4298095703125,130.9468994140625" style="fill: none; stroke-width: 1.5; stroke: rgb(0, 0, 0); stroke-opacity: 1;"/></g></g></g></g></g><g id="shape-2190df39-3c51-80a8-8007-e18bb16628e8" width="24" height="24" rx="0" ry="0" style="fill: rgb(0, 0, 0);"><g id="shape-2190df39-3c51-80a8-8007-e18bb168facf" style="display: none;"><g class="fills" id="fills-2190df39-3c51-80a8-8007-e18bb168facf"><rect width="80" height="80" x="16" transform="matrix(1.000000, 0.000000, 0.000000, 1.000000, 0.000000, 0.000000)" style="fill: none;" ry="0" fill="none" rx="0" y="70"/></g></g><g id="shape-2190df39-3c51-80a8-8007-e18bb1693b42" rx="0" ry="0" style="fill: rgb(0, 0, 0);"><g id="shape-2190df39-3c51-80a8-8007-e18bb1694511"><g class="fills" id="fills-2190df39-3c51-80a8-8007-e18bb1694511"><path d="M49.1998291015625,100.45654296875L52.1531982421875,90.1265869140625C53.2598876953125,86.2601318359375,58.7401123046875,86.2601318359375,59.8468017578125,90.1265869140625L62.7965087890625,100.45654296875C63.176513671875,101.7850341796875,64.2149658203125,102.823486328125,65.54345703125,103.2034912109375L75.8734130859375,106.1531982421875C79.7398681640625,107.2598876953125,79.7398681640625,112.7401123046875,75.8734130859375,113.8468017578125L65.54345703125,116.7965087890625C64.2149658203125,117.176513671875,63.176513671875,118.2149658203125,62.7965087890625,119.54345703125L59.8468017578125,129.8734130859375C58.7401123046875,133.7398681640625,53.2598876953125,133.7398681640625,52.1531982421875,129.8734130859375L49.2034912109375,119.54345703125C48.823486328125,118.2149658203125,47.7850341796875,117.176513671875,46.45654296875,116.7965087890625L36.1265869140625,113.8468017578125C32.2601318359375,112.7401123046875,32.2601318359375,107.2598876953125,36.1265869140625,106.1531982421875L46.45654296875,103.2034912109375C47.7850341796875,102.823486328125,48.823486328125,101.7850341796875,49.2034912109375,100.45654296875" style="fill: rgb(0, 0, 0); fill-opacity: 0.16;"/></g></g><g id="shape-2190df39-3c51-80a8-8007-e18bb169f906"><g class="fills" id="fills-2190df39-3c51-80a8-8007-e18bb169f906"><path d="M49.1998291015625,100.45654296875L52.1531982421875,90.1265869140625C53.2598876953125,86.2601318359375,58.7401123046875,86.2601318359375,59.8468017578125,90.1265869140625L62.7965087890625,100.45654296875C63.176513671875,101.7850341796875,64.2149658203125,102.823486328125,65.54345703125,103.2034912109375L75.8734130859375,106.1531982421875C79.7398681640625,107.2598876953125,79.7398681640625,112.7401123046875,75.8734130859375,113.8468017578125L65.54345703125,116.7965087890625C64.2149658203125,117.176513671875,63.176513671875,118.2149658203125,62.7965087890625,119.54345703125L59.8468017578125,129.8734130859375C58.7401123046875,133.7398681640625,53.2598876953125,133.7398681640625,52.1531982421875,129.8734130859375L49.2034912109375,119.54345703125C48.823486328125,118.2149658203125,47.7850341796875,117.176513671875,46.45654296875,116.7965087890625L36.1265869140625,113.8468017578125C32.2601318359375,112.7401123046875,32.2601318359375,107.2598876953125,36.1265869140625,106.1531982421875L46.45654296875,103.2034912109375C47.7850341796875,102.823486328125,48.823486328125,101.7850341796875,49.2034912109375,100.45654296875M30.766845703125,84.2764892578125L32.0201416015625,79.2532958984375C32.1865234375,78.5799560546875,33.1468505859375,78.5799560546875,33.313232421875,79.2532958984375L34.5701904296875,84.2764892578125C34.6287841796875,84.5157470703125,34.814697265625,84.7030029296875,35.0531005859375,84.76318359375L40.0799560546875,86.0201416015625C40.75341796875,86.1865234375,40.75341796875,87.1431884765625,40.0799560546875,87.313232421875L35.0531005859375,88.5701904296875C34.8155517578125,88.6300048828125,34.6300048828125,88.8155517578125,34.5701904296875,89.0531005859375L33.313232421875,94.0799560546875C33.1468505859375,94.75341796875,32.1865234375,94.75341796875,32.0201416015625,94.0799560546875L30.76318359375,89.0531005859375C30.703369140625,88.8155517578125,30.517822265625,88.6300048828125,30.2801513671875,88.5701904296875L25.2532958984375,87.313232421875C24.5799560546875,87.1468505859375,24.5799560546875,86.1865234375,25.2532958984375,86.0201416015625L30.2801513671875,84.76318359375C30.5186767578125,84.7030029296875,30.70458984375,84.5157470703125,30.76318359375,84.2764892578125M77.4334716796875,130.9468994140625L78.686767578125,125.9200439453125C78.8531494140625,125.24658203125,79.809814453125,125.24658203125,79.9798583984375,125.9200439453125L81.23681640625,130.9468994140625C81.296630859375,131.1844482421875,81.482177734375,131.3699951171875,81.7198486328125,131.4298095703125L86.7467041015625,132.686767578125C87.4200439453125,132.8531494140625,87.4200439453125,133.809814453125,86.7467041015625,133.9798583984375L81.7198486328125,135.23681640625C81.482177734375,135.296630859375,81.296630859375,135.482177734375,81.23681640625,135.7198486328125L79.9798583984375,140.7467041015625C79.8134765625,141.4200439453125,78.8568115234375,141.4200439453125,78.686767578125,140.7467041015625L77.4298095703125,135.7198486328125C77.3699951171875,135.482177734375,77.1844482421875,135.296630859375,76.9468994140625,135.23681640625L71.9200439453125,133.9798583984375C71.24658203125,133.8134765625,71.24658203125,132.8531494140625,71.9200439453125,132.686767578125L76.9468994140625,131.4298095703125C77.1844482421875,131.3699951171875,77.3699951171875,131.1844482421875,77.4298095703125,130.9468994140625" fill="none" stroke-linecap="round" stroke-linejoin="round" stroke-miterlimit="10" style="fill: none;"/></g><g fill="none" stroke-linecap="round" stroke-linejoin="round" stroke-miterlimit="10" id="strokes-0479491a-4c25-8028-8007-e18bf267988c-2190df39-3c51-80a8-8007-e18bb169f906" class="strokes"><g class="stroke-shape"><path d="M49.1998291015625,100.45654296875L52.1531982421875,90.1265869140625C53.2598876953125,86.2601318359375,58.7401123046875,86.2601318359375,59.8468017578125,90.1265869140625L62.7965087890625,100.45654296875C63.176513671875,101.7850341796875,64.2149658203125,102.823486328125,65.54345703125,103.2034912109375L75.8734130859375,106.1531982421875C79.7398681640625,107.2598876953125,79.7398681640625,112.7401123046875,75.8734130859375,113.8468017578125L65.54345703125,116.7965087890625C64.2149658203125,117.176513671875,63.176513671875,118.2149658203125,62.7965087890625,119.54345703125L59.8468017578125,129.8734130859375C58.7401123046875,133.7398681640625,53.2598876953125,133.7398681640625,52.1531982421875,129.8734130859375L49.2034912109375,119.54345703125C48.823486328125,118.2149658203125,47.7850341796875,117.176513671875,46.45654296875,116.7965087890625L36.1265869140625,113.8468017578125C32.2601318359375,112.7401123046875,32.2601318359375,107.2598876953125,36.1265869140625,106.1531982421875L46.45654296875,103.2034912109375C47.7850341796875,102.823486328125,48.823486328125,101.7850341796875,49.2034912109375,100.45654296875M30.766845703125,84.2764892578125L32.0201416015625,79.2532958984375C32.1865234375,78.5799560546875,33.1468505859375,78.5799560546875,33.313232421875,79.2532958984375L34.5701904296875,84.2764892578125C34.6287841796875,84.5157470703125,34.814697265625,84.7030029296875,35.0531005859375,84.76318359375L40.0799560546875,86.0201416015625C40.75341796875,86.1865234375,40.75341796875,87.1431884765625,40.0799560546875,87.313232421875L35.0531005859375,88.5701904296875C34.8155517578125,88.6300048828125,34.6300048828125,88.8155517578125,34.5701904296875,89.0531005859375L33.313232421875,94.0799560546875C33.1468505859375,94.75341796875,32.1865234375,94.75341796875,32.0201416015625,94.0799560546875L30.76318359375,89.0531005859375C30.703369140625,88.8155517578125,30.517822265625,88.6300048828125,30.2801513671875,88.5701904296875L25.2532958984375,87.313232421875C24.5799560546875,87.1468505859375,24.5799560546875,86.1865234375,25.2532958984375,86.0201416015625L30.2801513671875,84.76318359375C30.5186767578125,84.7030029296875,30.70458984375,84.5157470703125,30.76318359375,84.2764892578125M77.4334716796875,130.9468994140625L78.686767578125,125.9200439453125C78.8531494140625,125.24658203125,79.809814453125,125.24658203125,79.9798583984375,125.9200439453125L81.23681640625,130.9468994140625C81.296630859375,131.1844482421875,81.482177734375,131.3699951171875,81.7198486328125,131.4298095703125L86.7467041015625,132.686767578125C87.4200439453125,132.8531494140625,87.4200439453125,133.809814453125,86.7467041015625,133.9798583984375L81.7198486328125,135.23681640625C81.482177734375,135.296630859375,81.296630859375,135.482177734375,81.23681640625,135.7198486328125L79.9798583984375,140.7467041015625C79.8134765625,141.4200439453125,78.8568115234375,141.4200439453125,78.686767578125,140.7467041015625L77.4298095703125,135.7198486328125C77.3699951171875,135.482177734375,77.1844482421875,135.296630859375,76.9468994140625,135.23681640625L71.9200439453125,133.9798583984375C71.24658203125,133.8134765625,71.24658203125,132.8531494140625,71.9200439453125,132.686767578125L76.9468994140625,131.4298095703125C77.1844482421875,131.3699951171875,77.3699951171875,131.1844482421875,77.4298095703125,130.9468994140625" style="fill: none; stroke-width: 1.5; stroke: rgb(0, 0, 0); stroke-opacity: 1;"/></g></g></g></g></g></g></svg>